<?xml version="1.0" encoding="UTF-8" standalone="no"?>
<!-- Generator: Adobe Illustrator 16.0.4, SVG Export Plug-In . SVG Version: 6.00 Build 0)  -->

<svg
   xmlns:dc="http://purl.org/dc/elements/1.1/"
   xmlns:cc="http://creativecommons.org/ns#"
   xmlns:rdf="http://www.w3.org/1999/02/22-rdf-syntax-ns#"
   xmlns:svg="http://www.w3.org/2000/svg"
   xmlns="http://www.w3.org/2000/svg"
   xmlns:sodipodi="http://sodipodi.sourceforge.net/DTD/sodipodi-0.dtd"
   xmlns:inkscape="http://www.inkscape.org/namespaces/inkscape"
   version="1.1"
   id="Layer_1"
   x="0px"
   y="0px"
   width="86.537003"
   height="86.537003"
   viewBox="0 0 86.537004 86.537"
   enable-background="new 0 0 347.633 86.537"
   xml:space="preserve"
   sodipodi:docname="OpenMRS-logo.svg"
   inkscape:version="0.92.2 (5c3e80d, 2017-08-06)"><metadata
     id="metadata3787"><rdf:RDF><cc:Work
         rdf:about=""><dc:format>image/svg+xml</dc:format><dc:type
           rdf:resource="http://purl.org/dc/dcmitype/StillImage" /><dc:title></dc:title></cc:Work></rdf:RDF></metadata><defs
     id="defs3785"><clipPath
       clipPathUnits="userSpaceOnUse"
       id="clipPath3865"><rect
         id="rect3867"
         width="99.259842"
         height="101.71898"
         x="0"
         y="-15.181976" /></clipPath></defs><sodipodi:namedview
     pagecolor="#ffffff"
     bordercolor="#666666"
     borderopacity="1"
     objecttolerance="10"
     gridtolerance="10"
     guidetolerance="10"
     inkscape:pageopacity="0"
     inkscape:pageshadow="2"
     inkscape:window-width="1680"
     inkscape:window-height="987"
     id="namedview3783"
     showgrid="false"
     inkscape:zoom="3.092503"
     inkscape:cx="178.88069"
     inkscape:cy="30.502101"
     inkscape:window-x="-8"
     inkscape:window-y="-8"
     inkscape:window-maximized="1"
     inkscape:current-layer="Layer_1" /><g
     id="g3768"
     clip-path="url(#clipPath3865)"
     transform="translate(0,-5.1269532e-6)"><g
       id="g3752"><path
         d="m 23.436,23.473 c 5.069,-5.068 12.073,-8.203 19.811,-8.203 7.717,0 14.705,3.121 19.77,8.166 L 63.038,4.78 C 57.107,1.725 50.376,0 43.247,0 36.114,0 29.348,1.941 23.414,4.998 Z"
         id="path3744"
         inkscape:connector-curvature="0"
         style="fill:#f26522" /><path
         d="m 63.038,63.064 c -5.068,5.068 -12.07,8.203 -19.808,8.203 -7.717,0 -14.705,-3.119 -19.773,-8.166 l -0.021,18.656 c 5.934,3.055 12.662,4.779 19.794,4.779 7.133,0 13.863,-1.725 19.794,-4.779 z"
         id="path3746"
         inkscape:connector-curvature="0"
         style="fill:#eea616" /><path
         d="M 23.474,63.088 C 18.406,58.02 15.269,51.02 15.269,43.281 c 0,-7.719 3.121,-14.705 8.167,-19.773 L 4.779,23.488 C 1.725,29.42 0,36.148 0,43.281 0,50.414 1.725,57.144 4.782,63.074 Z"
         id="path3748"
         inkscape:connector-curvature="0"
         style="fill:#5b57a6" /><path
         d="m 63.027,23.434 c 5.069,5.068 8.205,12.074 8.205,19.812 0,7.717 -3.121,14.703 -8.167,19.77 l 18.657,0.02 c 3.055,-5.93 4.779,-12.66 4.779,-19.789 0,-7.135 -1.725,-13.865 -4.781,-19.799 z"
         id="path3750"
         inkscape:connector-curvature="0"
         style="fill:#009384" /></g><path
       d="m 104.957,43.271 c 0,-11.555 8.37,-20.084 19.98,-20.084 11.608,0 19.98,8.529 19.98,20.084 0,11.557 -8.372,20.09 -19.98,20.09 -11.61,0 -19.98,-8.533 -19.98,-20.09 z m 35.099,0 c 0,-8.803 -6.156,-15.875 -15.119,-15.875 -8.965,0 -15.119,7.072 -15.119,15.875 0,8.803 6.154,15.879 15.119,15.879 8.963,0 15.119,-7.076 15.119,-15.879 z"
       id="path3754"
       inkscape:connector-curvature="0" /><path
       d="m 150.155,36.533 h 4.275 v 3.727 h 0.111 c 2.358,-2.74 5.483,-4.387 9.211,-4.387 8.063,0 13.491,5.705 13.491,13.492 0,7.678 -5.647,13.49 -12.832,13.49 -4.608,0 -8.283,-2.305 -9.871,-5.211 h -0.111 v 16.688 h -4.275 V 36.533 Z m 13.378,22.373 c 5.541,0 9.106,-4.166 9.106,-9.541 0,-5.375 -3.565,-9.543 -9.106,-9.543 -5.541,0 -9.104,4.168 -9.104,9.543 0,5.375 3.564,9.541 9.104,9.541 z"
       id="path3756"
       inkscape:connector-curvature="0" /><path
       d="m 205.707,57.537 c -3.02,3.893 -6.637,5.318 -11.409,5.318 -8.061,0 -12.995,-6.031 -12.995,-13.49 0,-7.951 5.594,-13.492 13.162,-13.492 7.24,0 12.172,4.938 12.172,13.439 v 1.369 H 185.91 c 0.327,4.441 3.728,8.225 8.388,8.225 3.673,0 6.143,-1.314 8.171,-3.893 z m -3.676,-10.476 c -0.164,-4.332 -3.018,-7.238 -7.733,-7.238 -4.714,0 -7.839,2.906 -8.388,7.238 z"
       id="path3758"
       inkscape:connector-curvature="0" /><path
       d="m 212.176,42.621 c 0,-2.361 -0.219,-4.387 -0.219,-6.088 h 4.057 c 0,1.371 0.111,2.795 0.111,4.221 h 0.11 c 1.151,-2.52 4.333,-4.881 8.553,-4.881 6.747,0 9.761,4.279 9.761,10.475 v 15.848 h -4.275 V 46.789 c 0,-4.279 -1.867,-6.967 -5.869,-6.967 -5.538,0 -7.953,4.004 -7.953,9.873 v 12.5 h -4.275 V 42.621 Z"
       id="path3760"
       inkscape:connector-curvature="0" /><path
       d="m 243.729,24.158 h 6.75 l 12.962,29.969 h 0.108 l 13.062,-29.969 h 6.59 v 38.229 h -4.533 V 30.312 h -0.107 l -13.719,32.074 h -2.756 L 248.371,30.312 h -0.107 v 32.074 h -4.535 z"
       id="path3762"
       inkscape:connector-curvature="0" /><path
       d="m 292.709,24.158 h 9.771 c 7.398,0 15.228,1.078 15.228,10.527 0,5.562 -3.617,9.182 -9.556,10.1 l 10.853,17.602 h -5.561 l -10.368,-17.17 h -5.834 v 17.17 h -4.533 z m 4.534,16.848 h 4.049 c 5.023,0 11.56,0 11.56,-6.32 0,-5.506 -4.806,-6.314 -9.235,-6.314 h -6.373 v 12.634 z"
       id="path3764"
       inkscape:connector-curvature="0" /><path
       d="m 343.261,30.904 c -1.516,-2.43 -4.213,-3.508 -6.969,-3.508 -3.998,0 -8.151,1.891 -8.151,6.426 0,3.51 1.943,5.078 8.044,7.021 5.94,1.891 11.448,3.834 11.448,11.338 0,7.615 -6.535,11.18 -13.444,11.18 -4.429,0 -9.182,-1.459 -11.773,-5.293 l 3.887,-3.186 c 1.62,2.811 4.86,4.268 8.156,4.268 3.886,0 8.314,-2.27 8.314,-6.645 0,-4.697 -3.185,-5.508 -9.99,-7.775 -5.399,-1.783 -9.501,-4.16 -9.501,-10.529 0,-7.344 6.316,-11.014 13.011,-11.014 4.267,0 7.885,1.186 10.69,4.479 z"
       id="path3766"
       inkscape:connector-curvature="0" /></g><g
     id="g3770"
     transform="translate(0,-5.1269532e-6)" /><g
     id="g3772"
     transform="translate(0,-5.1269532e-6)" /><g
     id="g3774"
     transform="translate(0,-5.1269532e-6)" /><g
     id="g3776"
     transform="translate(0,-5.1269532e-6)" /><g
     id="g3778"
     transform="translate(0,-5.1269532e-6)" /><g
     id="g3780"
     transform="translate(0,-5.1269532e-6)" /></svg>